<svg id="visual" viewBox="0 0 1440 900" width="1440" height="900" xmlns="http://www.w3.org/2000/svg" xmlns:xlink="http://www.w3.org/1999/xlink" version="1.1"><g stroke-width="1" stroke-linejoin="bevel"><path d="M822 460L923 431L928 339Z" fill="#2a2f38" stroke="#2a2f38"></path><path d="M928 339L809 280L822 460Z" fill="#0a1726" stroke="#0a1726"></path><path d="M602 455L799 563L822 460Z" fill="#001122" stroke="#001122"></path><path d="M822 460L799 563L923 431Z" fill="#393c41" stroke="#393c41"></path><path d="M809 280L638 312L822 460Z" fill="#0a1726" stroke="#0a1726"></path><path d="M638 312L602 455L822 460Z" fill="#1b232f" stroke="#1b232f"></path><path d="M999 136L829 119L809 280Z" fill="#393c41" stroke="#393c41"></path><path d="M809 280L619 124L638 312Z" fill="#505050" stroke="#505050"></path><path d="M759 777L926 635L799 563Z" fill="#0a1726" stroke="#0a1726"></path><path d="M799 563L926 635L923 431Z" fill="#1b232f" stroke="#1b232f"></path><path d="M1148 294L999 136L928 339Z" fill="#505050" stroke="#505050"></path><path d="M1156 412L928 339L923 431Z" fill="#2a2f38" stroke="#2a2f38"></path><path d="M928 339L999 136L809 280Z" fill="#222933" stroke="#222933"></path><path d="M602 455L655 610L799 563Z" fill="#2a2f38" stroke="#2a2f38"></path><path d="M1155 568L1156 412L923 431Z" fill="#131d2b" stroke="#131d2b"></path><path d="M1156 412L1148 294L928 339Z" fill="#48494b" stroke="#48494b"></path><path d="M829 119L619 124L809 280Z" fill="#505050" stroke="#505050"></path><path d="M494 288L502 470L602 455Z" fill="#0a1726" stroke="#0a1726"></path><path d="M926 635L1155 568L923 431Z" fill="#393c41" stroke="#393c41"></path><path d="M494 288L602 455L638 312Z" fill="#48494b" stroke="#48494b"></path><path d="M602 455L497 588L655 610Z" fill="#31353d" stroke="#31353d"></path><path d="M492 174L494 288L638 312Z" fill="#0a1726" stroke="#0a1726"></path><path d="M829 119L678 0L619 124Z" fill="#414246" stroke="#414246"></path><path d="M983 0L789 0L829 119Z" fill="#222933" stroke="#222933"></path><path d="M1148 294L1156 137L999 136Z" fill="#001122" stroke="#001122"></path><path d="M999 136L983 0L829 119Z" fill="#393c41" stroke="#393c41"></path><path d="M1279 302L1156 137L1148 294Z" fill="#48494b" stroke="#48494b"></path><path d="M1108 0L983 0L999 136Z" fill="#001122" stroke="#001122"></path><path d="M1155 568L1253 451L1156 412Z" fill="#001122" stroke="#001122"></path><path d="M1156 412L1279 302L1148 294Z" fill="#31353d" stroke="#31353d"></path><path d="M617 734L759 777L655 610Z" fill="#31353d" stroke="#31353d"></path><path d="M655 610L759 777L799 563Z" fill="#2a2f38" stroke="#2a2f38"></path><path d="M926 635L1148 764L1155 568Z" fill="#393c41" stroke="#393c41"></path><path d="M759 777L963 774L926 635Z" fill="#31353d" stroke="#31353d"></path><path d="M340 478L497 588L502 470Z" fill="#2a2f38" stroke="#2a2f38"></path><path d="M502 470L497 588L602 455Z" fill="#2a2f38" stroke="#2a2f38"></path><path d="M619 124L492 174L638 312Z" fill="#222933" stroke="#222933"></path><path d="M494 288L340 478L502 470Z" fill="#414246" stroke="#414246"></path><path d="M517 0L492 174L619 124Z" fill="#31353d" stroke="#31353d"></path><path d="M789 0L678 0L829 119Z" fill="#505050" stroke="#505050"></path><path d="M497 588L617 734L655 610Z" fill="#414246" stroke="#414246"></path><path d="M1253 451L1279 302L1156 412Z" fill="#1b232f" stroke="#1b232f"></path><path d="M1257 0L1108 0L1156 137Z" fill="#48494b" stroke="#48494b"></path><path d="M1156 137L1108 0L999 136Z" fill="#393c41" stroke="#393c41"></path><path d="M963 774L1148 764L926 635Z" fill="#222933" stroke="#222933"></path><path d="M1155 568L1285 612L1253 451Z" fill="#48494b" stroke="#48494b"></path><path d="M1279 302L1258 108L1156 137Z" fill="#2a2f38" stroke="#2a2f38"></path><path d="M1255 710L1285 612L1155 568Z" fill="#2a2f38" stroke="#2a2f38"></path><path d="M1253 451L1440 438L1279 302Z" fill="#1b232f" stroke="#1b232f"></path><path d="M678 0L517 0L619 124Z" fill="#393c41" stroke="#393c41"></path><path d="M1148 764L1255 710L1155 568Z" fill="#1b232f" stroke="#1b232f"></path><path d="M759 777L795 900L963 774Z" fill="#131d2b" stroke="#131d2b"></path><path d="M963 774L1126 900L1148 764Z" fill="#31353d" stroke="#31353d"></path><path d="M632 900L795 900L759 777Z" fill="#31353d" stroke="#31353d"></path><path d="M335 287L340 478L494 288Z" fill="#2a2f38" stroke="#2a2f38"></path><path d="M497 588L476 778L617 734Z" fill="#414246" stroke="#414246"></path><path d="M617 734L632 900L759 777Z" fill="#31353d" stroke="#31353d"></path><path d="M335 287L494 288L492 174Z" fill="#001122" stroke="#001122"></path><path d="M308 147L335 287L492 174Z" fill="#131d2b" stroke="#131d2b"></path><path d="M795 900L987 900L963 774Z" fill="#48494b" stroke="#48494b"></path><path d="M1148 764L1284 900L1255 710Z" fill="#222933" stroke="#222933"></path><path d="M300 590L476 778L497 588Z" fill="#222933" stroke="#222933"></path><path d="M1440 0L1257 0L1258 108Z" fill="#131d2b" stroke="#131d2b"></path><path d="M1258 108L1257 0L1156 137Z" fill="#393c41" stroke="#393c41"></path><path d="M513 900L632 900L617 734Z" fill="#505050" stroke="#505050"></path><path d="M987 900L1126 900L963 774Z" fill="#222933" stroke="#222933"></path><path d="M1440 565L1440 438L1253 451Z" fill="#414246" stroke="#414246"></path><path d="M1279 302L1440 123L1258 108Z" fill="#31353d" stroke="#31353d"></path><path d="M1440 565L1253 451L1285 612Z" fill="#0a1726" stroke="#0a1726"></path><path d="M1440 565L1285 612L1440 720Z" fill="#31353d" stroke="#31353d"></path><path d="M194 596L300 590L340 478Z" fill="#1b232f" stroke="#1b232f"></path><path d="M340 478L300 590L497 588Z" fill="#31353d" stroke="#31353d"></path><path d="M337 0L308 147L492 174Z" fill="#414246" stroke="#414246"></path><path d="M140 423L194 596L340 478Z" fill="#001122" stroke="#001122"></path><path d="M1440 438L1440 282L1279 302Z" fill="#393c41" stroke="#393c41"></path><path d="M1440 720L1285 612L1255 710Z" fill="#414246" stroke="#414246"></path><path d="M278 900L513 900L476 778Z" fill="#414246" stroke="#414246"></path><path d="M476 778L513 900L617 734Z" fill="#131d2b" stroke="#131d2b"></path><path d="M1440 282L1440 123L1279 302Z" fill="#1b232f" stroke="#1b232f"></path><path d="M517 0L337 0L492 174Z" fill="#505050" stroke="#505050"></path><path d="M1126 900L1284 900L1148 764Z" fill="#1b232f" stroke="#1b232f"></path><path d="M1284 900L1440 720L1255 710Z" fill="#222933" stroke="#222933"></path><path d="M300 590L302 781L476 778Z" fill="#505050" stroke="#505050"></path><path d="M140 423L340 478L335 287Z" fill="#414246" stroke="#414246"></path><path d="M300 590L179 712L302 781Z" fill="#505050" stroke="#505050"></path><path d="M140 423L335 287L141 323Z" fill="#31353d" stroke="#31353d"></path><path d="M1440 123L1440 0L1258 108Z" fill="#505050" stroke="#505050"></path><path d="M141 323L335 287L170 138Z" fill="#1b232f" stroke="#1b232f"></path><path d="M170 138L335 287L308 147Z" fill="#131d2b" stroke="#131d2b"></path><path d="M337 0L170 138L308 147Z" fill="#001122" stroke="#001122"></path><path d="M0 588L179 712L194 596Z" fill="#414246" stroke="#414246"></path><path d="M194 596L179 712L300 590Z" fill="#414246" stroke="#414246"></path><path d="M302 781L278 900L476 778Z" fill="#0a1726" stroke="#0a1726"></path><path d="M162 900L278 900L302 781Z" fill="#222933" stroke="#222933"></path><path d="M1284 900L1440 900L1440 720Z" fill="#48494b" stroke="#48494b"></path><path d="M337 0L141 0L170 138Z" fill="#222933" stroke="#222933"></path><path d="M0 323L140 423L141 323Z" fill="#393c41" stroke="#393c41"></path><path d="M0 323L0 424L140 423Z" fill="#31353d" stroke="#31353d"></path><path d="M140 423L0 588L194 596Z" fill="#31353d" stroke="#31353d"></path><path d="M179 712L162 900L302 781Z" fill="#393c41" stroke="#393c41"></path><path d="M0 323L141 323L0 142Z" fill="#222933" stroke="#222933"></path><path d="M0 142L141 323L170 138Z" fill="#131d2b" stroke="#131d2b"></path><path d="M0 770L162 900L179 712Z" fill="#131d2b" stroke="#131d2b"></path><path d="M0 424L0 588L140 423Z" fill="#131d2b" stroke="#131d2b"></path><path d="M141 0L0 142L170 138Z" fill="#131d2b" stroke="#131d2b"></path><path d="M141 0L0 0L0 142Z" fill="#414246" stroke="#414246"></path><path d="M0 588L0 770L179 712Z" fill="#001122" stroke="#001122"></path><path d="M0 770L0 900L162 900Z" fill="#001122" stroke="#001122"></path></g></svg>